<?xml version="1.0" encoding="UTF-8" standalone="no"?>
<!-- Created with Inkscape (http://www.inkscape.org/) -->

<svg
   xmlns:dc="http://purl.org/dc/elements/1.1/"
   xmlns:cc="http://creativecommons.org/ns#"
   xmlns:rdf="http://www.w3.org/1999/02/22-rdf-syntax-ns#"
   xmlns:svg="http://www.w3.org/2000/svg"
   xmlns="http://www.w3.org/2000/svg"
   xmlns:sodipodi="http://sodipodi.sourceforge.net/DTD/sodipodi-0.dtd"
   xmlns:inkscape="http://www.inkscape.org/namespaces/inkscape"
   width="79.721237mm"
   height="253.51524mm"
   viewBox="0 0 282.47682 898.28235"
   id="svg2"
   version="1.1"
   inkscape:version="0.91 r13725"
   sodipodi:docname="collector.svg">
  <defs
     id="defs4" />
  <sodipodi:namedview
     id="base"
     pagecolor="#ffffff"
     bordercolor="#666666"
     borderopacity="1.0"
     inkscape:pageopacity="0.0"
     inkscape:pageshadow="2"
     inkscape:zoom="0.7"
     inkscape:cx="-160.50777"
     inkscape:cy="421.75054"
     inkscape:document-units="px"
     inkscape:current-layer="layer1"
     showgrid="false"
     fit-margin-top="0"
     fit-margin-left="0"
     fit-margin-right="0"
     fit-margin-bottom="0"
     inkscape:window-width="1920"
     inkscape:window-height="1027"
     inkscape:window-x="1912"
     inkscape:window-y="-8"
     inkscape:window-maximized="1" />
  <metadata
     id="metadata7">
    <rdf:RDF>
      <cc:Work
         rdf:about="">
        <dc:format>image/svg+xml</dc:format>
        <dc:type
           rdf:resource="http://purl.org/dc/dcmitype/StillImage" />
        <dc:title />
      </cc:Work>
    </rdf:RDF>
  </metadata>
  <g
     inkscape:label="Layer 1"
     inkscape:groupmode="layer"
     id="layer1"
     transform="translate(-191.78516,-152.88281)">
    <path
       id="path4186"
       d="m 432.6543,152.88281 -207.88868,31.57031 c -13.95993,5.88738 -32.29536,46.12028 -32.98046,75.90235 l 2.01953,593.43555 c 5.78574,34.07001 97.45762,66.26042 105.24023,105.24023 l 0,73.33005 c 15.79319,26.573 132.34078,31.2595 126.14844,-27.8847 l 0,-55.46098 c -10.04531,-30.08456 49.2126,-118.99289 49.06836,-161.04882 l -2.01953,-589.05274 c -5.30403,-22.13521 -15.45966,-37.34189 -39.58789,-46.03125 z"
       style="fill:#e6e6e6;fill-opacity:1;fill-rule:evenodd;stroke:none;stroke-width:1px;stroke-linecap:butt;stroke-linejoin:miter;stroke-opacity:1"
       inkscape:connector-curvature="0"
       sodipodi:nodetypes="ccccccccscc" />
    <path
       id="path4184"
       d="m 236.21702,259.52059 c -3.96999,-24.25823 -12.30309,-26.70084 -11.4514,-75.06747 -13.95993,5.88738 -32.29536,46.12028 -32.98046,75.90235 l 2.01953,593.43555 c 5.78574,34.07001 97.45762,66.26042 105.24023,105.24023 l 1.01015,75.85545 c 26.90487,20.5121 74.71987,14.9724 74.71987,14.9724 -21.38806,-6.6822 -32.7442,-15.0754 -34.98423,-42.0987 0,0 0.0586,-36.43458 -3.682,-71.09091 -9.18376,-21.61204 -63.23299,-51.65373 -92.32411,-88.08719 -11.36494,-33.24689 -7.56758,-589.06171 -7.56758,-589.06171 z"
       style="fill:#f2f2f2;fill-opacity:1;fill-rule:evenodd;stroke:none;stroke-width:1px;stroke-linecap:butt;stroke-linejoin:miter;stroke-opacity:1"
       inkscape:connector-curvature="0"
       sodipodi:nodetypes="ccccccccccc" />
    <path
       inkscape:connector-curvature="0"
       style="fill:#f9f9f9;fill-opacity:1;fill-rule:evenodd;stroke:none;stroke-width:1px;stroke-linecap:butt;stroke-linejoin:miter;stroke-opacity:1"
       d="m 335.21484,167.68441 -110.44922,16.77344 c -13.95993,5.88738 -32.29538,46.12027 -32.98048,75.90234 l 2.01955,593.43554 c 5.78574,34.07001 97.45762,66.26043 105.24023,105.24025 l 0,73.32992 c 12.26533,20.6372 85.28823,28.0657 114.40428,2.6543 l -78.23436,0 0,-255.58775 -76.64258,12.67578 -5.71484,-12.14453 82.35742,-14.02344 0,-35.50195 -76.64258,12.67578 -5.71484,-12.14258 82.35742,-14.02342 0,-33.48047 -76.64258,12.67578 -5.71484,-12.14258 82.35742,-14.02539 0,-37.52148 -76.64258,12.67578 -5.71484,-12.14258 82.35742,-14.02344 0,-32.97656 -76.64258,12.67578 -5.71484,-12.14258 82.35742,-14.02539 0,-33.98437 -76.64258,12.67577 -5.71484,-12.14258 82.35742,-14.02539 0,-32.4707 -76.64258,12.67578 -5.71484,-12.14258 82.35742,-14.02344 0,-32.22265 -76.64258,12.67578 -5.71484,-12.14453 82.35742,-14.02344 0,-33.65235 -76.64258,12.67579 -5.71484,-12.14258 82.35742,-14.02344 0,-32.22266 -76.64258,12.67578 -5.71484,-12.14257 82.35742,-14.02539 0,-30.08008 -76.64258,12.67578 -5.71484,-12.14258 82.35742,-14.02539 0,-32.22266 -76.64258,12.67579 -5.71484,-12.14258 82.35742,-14.02344 0,-83.51562 z"
       id="cutaway"
       inkscape:label="#path4136-9" />
    <path
       inkscape:connector-curvature="0"
       style="fill:#f9f9f9;fill-opacity:1;fill-rule:evenodd;stroke:none;stroke-width:1px;stroke-linecap:butt;stroke-linejoin:miter;stroke-opacity:1"
       d="m 430.55272,152.88614 -207.88867,31.57031 c -8.72548,3.67983 -19.1599,20.77857 -25.92578,40.35547 6.76592,-19.57544 17.20082,-36.67195 25.92578,-40.35156 l 110.44922,-16.77344 0,83.51172 114.78515,-19.54688 -5.71484,15 -185.71289,30.7129 -5.71289,-12.13868 -0.002,0 5.71484,12.14258 76.64258,-12.67578 0,32.21876 114.78515,-19.54688 -5.71484,15.00001 -185.71289,30.71484 -5.71289,-12.13867 -0.002,0 5.71485,12.14258 76.64258,-12.67579 0,30.07618 114.78515,-19.54688 -5.71484,15 -185.71289,30.71484 -5.71289,-12.13867 -0.002,0 5.71484,12.14258 76.64258,-12.67578 0,32.21875 114.78515,-19.54688 -5.71484,15 -185.71289,30.7129 -5.71289,-12.13868 -0.002,0 5.71484,12.14258 76.64258,-12.67578 0,33.64844 114.78515,-19.54688 -5.71484,15 -185.71289,30.71485 -5.71289,-12.14063 -0.002,0 5.71485,12.14453 76.64257,-12.67578 0,32.21875 114.78515,-19.54687 -5.71484,15 -185.71288,30.71289 -5.71289,-12.13867 -0.002,0 5.71484,12.14257 76.64258,-12.67578 0,32.4668 114.78515,-19.54688 -5.71484,15 -185.71289,30.71485 -5.71289,-12.13867 -0.002,0 5.71484,12.14257 76.64258,-12.67578 0,33.98047 114.78515,-19.54687 -5.71484,15 -185.71289,30.71484 -5.71289,-12.13867 -0.002,0 5.71484,12.14258 76.64258,-12.67578 0,32.97265 114.78515,-19.54687 -5.71484,15 -185.71289,30.71289 -5.71289,-12.13867 -0.002,0 5.71485,12.14257 76.64258,-12.67578 0,37.51758 114.78515,-19.54687 -5.71484,15 -185.71289,30.71484 -5.71289,-12.13867 -0.002,0 5.71484,12.14258 76.64258,-12.67579 0,33.47657 114.78515,-19.54688 -5.71484,15 -185.71289,30.71289 -5.71289,-12.13867 -0.002,0 5.71484,12.14258 76.64258,-12.67578 0,35.49804 114.78515,-19.54687 -5.71484,15 -185.71289,30.71484 -5.71289,-12.14062 -0.002,0 5.71485,12.14453 76.64258,-12.67578 0,255.58782 78.23047,0 c 8.37718,-7.3093 13.13151,-17.3292 11.74804,-30.5429 l 0,-55.46094 c -10.04531,-30.08456 49.2126,-118.9929 49.06836,-161.04883 L 470.14061,198.91739 C 464.83658,176.78218 454.68095,161.5755 430.55272,152.88614 Z M 193.1621,236.767 c -0.50799,2.01175 -0.9691,4.02654 -1.37696,6.0332 0.40792,-2.00666 0.86892,-4.02147 1.37696,-6.0332 z m 104.54687,796.7558 c 0.0499,0.069 0.10499,0.1363 0.15625,0.2051 -0.0512,-0.069 -0.10638,-0.1359 -0.15625,-0.2051 z m 0.9082,1.1485 c 0.0614,0.072 0.12266,0.1434 0.18555,0.2148 -0.0628,-0.071 -0.12423,-0.1431 -0.18555,-0.2148 z m 112.52735,0.5214 c -1.23017,1.0601 -2.53784,2.0618 -3.91406,3.0079 1.37675,-0.9462 2.68347,-1.9476 3.91406,-3.0079 z m -108.84961,2.9063 c 0.0669,0.051 0.13348,0.1034 0.20117,0.1543 -0.0675,-0.051 -0.13447,-0.1033 -0.20117,-0.1543 z m 104.54687,0.3691 c -0.43336,0.2919 -0.87387,0.5785 -1.32031,0.8594 0.44661,-0.2809 0.88679,-0.5675 1.32031,-0.8594 z m -1.66601,1.0743 c -0.46331,0.2865 -0.92969,0.5705 -1.40625,0.8457 0.47685,-0.2752 0.94266,-0.5591 1.40625,-0.8457 z m -1.40625,0.8457 c -1.01038,0.5832 -2.05279,1.1373 -3.11914,1.6699 1.06619,-0.5323 2.10889,-1.0869 3.11914,-1.6699 z m -96.66602,0.8066 c 0.049,0.027 0.0992,0.053 0.14844,0.08 -0.0493,-0.027 -0.0994,-0.053 -0.14844,-0.08 z m 1.77149,0.918 c 0.0535,0.026 0.10636,0.054 0.16015,0.08 -0.0538,-0.026 -0.10662,-0.053 -0.16015,-0.08 z m 91.40234,0.1328 c -0.44077,0.2164 -0.88834,0.4267 -1.33789,0.6347 0.44978,-0.208 0.89689,-0.4182 1.33789,-0.6347 z m -90.20898,0.4336 c 0.6772,0.3156 1.37097,0.6238 2.08398,0.9238 -0.71279,-0.2999 -1.40699,-0.6083 -2.08398,-0.9238 z m 88.1289,0.539 c -0.42432,0.1901 -0.85167,0.3778 -1.2832,0.5606 0.43199,-0.1829 0.85843,-0.3704 1.2832,-0.5606 z m -85.39453,0.6621 c 0.86599,0.3533 1.76257,0.6933 2.67578,1.0235 -0.91351,-0.3302 -1.80954,-0.6701 -2.67578,-1.0235 z m 83.39258,0.1954 c -1.05531,0.4332 -2.12673,0.849 -3.2207,1.2402 1.09428,-0.3911 2.16509,-0.8071 3.2207,-1.2402 z m -3.2207,1.2402 c -0.47481,0.1698 -0.95595,0.3322 -1.4375,0.4941 0.4815,-0.1618 0.96274,-0.3244 1.4375,-0.4941 z m -76.51954,-0.068 c 0.79935,0.2769 1.61235,0.5455 2.44336,0.8047 -0.83078,-0.2591 -1.64423,-0.5279 -2.44336,-0.8047 z m 74.26954,0.832 c -0.44835,0.1456 -0.89983,0.2888 -1.35352,0.4278 0.45403,-0.1391 0.90484,-0.2821 1.35352,-0.4278 z m -70.94141,0.2442 c 0.88747,0.2665 1.7936,0.5213 2.71289,0.7675 -0.91882,-0.246 -1.82587,-0.5011 -2.71289,-0.7675 z m 68.6875,0.4511 c -0.46542,0.1372 -0.92987,0.274 -1.40039,0.4043 0.47048,-0.1302 0.93501,-0.2672 1.40039,-0.4043 z m -1.49805,0.4317 c -1.25143,0.3453 -2.52277,0.6628 -3.80664,0.9609 1.2839,-0.2979 2.55518,-0.6158 3.80664,-0.9609 z m -63.38086,0.1719 c 1.01013,0.2582 2.03102,0.5086 3.07422,0.7422 -1.04305,-0.2335 -2.06423,-0.4841 -3.07422,-0.7422 z m 59.16602,0.8867 c -1.28965,0.2938 -2.59549,0.563 -3.91211,0.8105 1.31745,-0.2475 2.62165,-0.5167 3.91211,-0.8105 z m -55.27539,0.029 c 0.91182,0.1969 1.83579,0.3828 2.76953,0.5605 -0.9338,-0.1777 -1.85765,-0.3636 -2.76953,-0.5605 z m 3.83984,0.7617 c 1.10397,0.1997 2.21986,0.39 3.34961,0.5625 -1.13005,-0.1725 -2.24535,-0.3628 -3.34961,-0.5625 z m 47.07227,0.1016 c -1.25364,0.2302 -2.51606,0.4414 -3.78906,0.6308 1.27301,-0.1892 2.5354,-0.4008 3.78906,-0.6308 z m -42.79883,0.5937 c 1.00322,0.1457 2.01512,0.2785 3.03516,0.4024 -1.02017,-0.1239 -2.03182,-0.2567 -3.03516,-0.4024 z m 38.69141,0.086 c -1.34181,0.1959 -2.69482,0.366 -4.05274,0.5176 1.35822,-0.1515 2.71062,-0.3219 4.05274,-0.5176 z m -34.83985,0.418 c 1.20987,0.1394 2.4294,0.263 3.65821,0.3711 -1.22884,-0.108 -2.4483,-0.2318 -3.65821,-0.3711 z m 30.23047,0.1601 c -1.30499,0.1398 -2.61508,0.2613 -3.92969,0.3614 1.31463,-0.1 2.62468,-0.2218 3.92969,-0.3614 z m -25.59766,0.2891 c 1.06817,0.086 2.14188,0.1604 3.22071,0.2227 -1.07884,-0.062 -2.15252,-0.1364 -3.22071,-0.2227 z m 21.45899,0.09 c -1.32841,0.099 -2.66077,0.1732 -3.99414,0.2324 1.33365,-0.059 2.66545,-0.1337 3.99414,-0.2324 z m -17.51758,0.1777 c 1.2642,0.066 2.5344,0.1121 3.80859,0.1446 -1.27403,-0.032 -2.54455,-0.078 -3.80859,-0.1446 z m 12.66992,0.09 c -1.30999,0.05 -2.62028,0.087 -3.92969,0.1 1.30982,-0.012 2.61928,-0.05 3.92969,-0.1 z m -7.96484,0.074 c 1.2247,0.024 2.45232,0.034 3.68164,0.025 -1.2292,0.01 -2.45706,0 -3.68164,-0.025 z"
       id="path4136" />
  </g>
</svg>
